<?xml version="1.0" standalone="no"?><!DOCTYPE svg PUBLIC "-//W3C//DTD SVG 1.1//EN" "http://www.w3.org/Graphics/SVG/1.1/DTD/svg11.dtd"><svg t="1665663996259" class="icon" viewBox="0 0 1024 1024" version="1.1" xmlns="http://www.w3.org/2000/svg" p-id="926" xmlns:xlink="http://www.w3.org/1999/xlink" width="200" height="200"><path d="M795.02336 418.02752a15.9488 15.9488 0 0 1-15.95392-15.95392c0-149.71904-121.79968-271.52384-271.51872-271.52384C357.8368 130.55488 236.032 252.35968 236.032 402.07872a15.95392 15.95392 0 1 1-31.90784 0c0-167.31136 136.1152-303.43168 303.42144-303.43168 167.31136 0 303.42656 136.12032 303.42656 303.43168a15.94368 15.94368 0 0 1-15.9488 15.9488zM220.07808 808.89344a15.95392 15.95392 0 0 1-15.95392-15.9488v-191.16544a15.9488 15.9488 0 0 1 31.90784 0v191.16544a15.9488 15.9488 0 0 1-15.95392 15.9488z" fill="#2E0C08" p-id="927"></path><path d="M220.07808 564.56192a15.95392 15.95392 0 0 1-15.95392-15.9488v-146.5344a15.95392 15.95392 0 1 1 31.90784 0v146.5344a15.95392 15.95392 0 0 1-15.95392 15.9488zM795.02336 851.43552a15.9488 15.9488 0 0 1-15.95392-15.9488v-433.408a15.95392 15.95392 0 1 1 31.90272 0v433.408a15.94368 15.94368 0 0 1-15.9488 15.9488z" fill="#2E0C08" p-id="928"></path><path d="M386.75968 407.54688m-65.46432 0a65.46432 65.46432 0 1 0 130.92864 0 65.46432 65.46432 0 1 0-130.92864 0Z" fill="#CF3924" p-id="929"></path><path d="M386.75968 488.96512c-44.89216 0-81.41312-36.52096-81.41312-81.41312s36.52608-81.41824 81.41312-81.41824c44.89216 0 81.41312 36.52608 81.41312 81.41824s-36.52096 81.41312-81.41312 81.41312z m0-130.92864c-27.29984 0-49.5104 22.21056-49.5104 49.5104s22.21056 49.5104 49.5104 49.5104c27.30496 0 49.5104-22.21056 49.5104-49.5104s-22.20544-49.5104-49.5104-49.5104z" fill="#2E0C08" p-id="930"></path><path d="M385.61792 404.05504m-27.8784 0a27.8784 27.8784 0 1 0 55.7568 0 27.8784 27.8784 0 1 0-55.7568 0Z" fill="#2E0C08" p-id="931"></path><path d="M625.84832 407.54688m-65.46432 0a65.46432 65.46432 0 1 0 130.92864 0 65.46432 65.46432 0 1 0-130.92864 0Z" fill="#CF3924" p-id="932"></path><path d="M625.84832 488.96512c-44.89216 0-81.408-36.52096-81.408-81.41312s36.52096-81.41824 81.408-81.41824c44.89728 0 81.41312 36.52608 81.41312 81.41824s-36.51584 81.41312-81.41312 81.41312z m0-130.92864c-27.29472 0-49.50528 22.21056-49.50528 49.5104s22.21056 49.5104 49.50528 49.5104c27.29984 0 49.5104-22.21056 49.5104-49.5104s-22.21056-49.5104-49.5104-49.5104z" fill="#2E0C08" p-id="933"></path><path d="M625.85344 402.23744m-27.8784 0a27.8784 27.8784 0 1 0 55.7568 0 27.8784 27.8784 0 1 0-55.7568 0Z" fill="#2E0C08" p-id="934"></path><path d="M261.51424 911.39584c-31.6416 0-57.38496-25.56416-57.38496-56.99584v-57.68192a15.95392 15.95392 0 1 1 31.90784 0v57.68192c0 13.83424 11.43296 25.09312 25.48224 25.09312 14.0544 0 25.48736-11.25888 25.48736-25.09312v-57.68192a15.95392 15.95392 0 1 1 31.90272 0v57.68192c-0.00512 31.43168-25.7536 56.99584-57.3952 56.99584zM427.264 841.74848c-31.6416 0-57.38496-25.55904-57.38496-56.99072v-57.70752a15.95392 15.95392 0 1 1 31.90784 0v57.70752c0 13.83424 11.43296 25.08288 25.48224 25.08288s25.48224-11.24864 25.48224-25.08288v-57.70752a15.9488 15.9488 0 1 1 31.90784 0v57.70752c-0.01024 31.43168-25.7536 56.99072-57.3952 56.99072zM593.00864 804.1728c-31.64672 0-57.39008-25.56416-57.39008-56.9856v-57.69216a15.9488 15.9488 0 1 1 31.90272 0v57.69216c0 13.82912 11.42784 25.07776 25.48736 25.07776 14.04928 0 25.48736-11.24864 25.48736-25.07776v-57.69216a15.9488 15.9488 0 1 1 31.90272 0v57.69216c0 31.42144-25.74336 56.9856-57.39008 56.9856z" fill="#2E0C08" p-id="935"></path><path d="M385.8176 749.49632a15.95392 15.95392 0 0 1-15.95392-15.9488V675.84c0-13.82912-11.42784-25.088-25.48224-25.088s-25.48224 11.25888-25.48224 25.088v57.70752a15.9488 15.9488 0 1 1-31.90272 0V675.84c0-31.42656 25.74336-56.99584 57.38496-56.99584S401.77152 644.41344 401.77152 675.84v57.70752a15.95392 15.95392 0 0 1-15.95392 15.9488zM551.57248 743.50592a15.9488 15.9488 0 0 1-15.95392-15.95392v-57.7024c0-13.83424-11.43296-25.08288-25.48736-25.08288-14.04928 0-25.48224 11.24864-25.48224 25.08288v57.7024a15.9488 15.9488 0 1 1-31.90784 0v-57.7024c0-31.42656 25.74336-56.99072 57.38496-56.99072 31.64672 0 57.39008 25.56416 57.39008 56.99072v57.7024a15.94368 15.94368 0 0 1-15.94368 15.95392zM717.69088 757.36576a15.9488 15.9488 0 0 1-15.9488-15.95392V683.7248c0-13.83424-11.43296-25.088-25.48736-25.088-14.0544 0-25.49248 11.25376-25.49248 25.088v57.68704a15.9488 15.9488 0 1 1-31.8976 0V683.7248c0-31.42656 25.74336-56.99584 57.39008-56.99584s57.39008 25.56928 57.39008 56.99584v57.68704a15.9488 15.9488 0 0 1-15.95392 15.95392z" fill="#2E0C08" p-id="936"></path></svg>